<svg width="378" height="60" viewBox="0 0 378 60" fill="none" xmlns="http://www.w3.org/2000/svg">
<path d="M56.64 44.28C54.5867 44.28 52.7467 43.9467 51.12 43.28C49.4933 42.6133 48.1867 41.6267 47.2 40.32C46.24 39.0133 45.7333 37.44 45.68 35.6H52.96C53.0667 36.64 53.4267 37.44 54.04 38C54.6533 38.5333 55.4533 38.8 56.44 38.8C57.4533 38.8 58.2533 38.5733 58.84 38.12C59.4267 37.64 59.72 36.9867 59.72 36.16C59.72 35.4667 59.48 34.8933 59 34.44C58.5467 33.9867 57.9733 33.6133 57.28 33.32C56.6133 33.0267 55.6533 32.6933 54.4 32.32C52.5867 31.76 51.1067 31.2 49.96 30.64C48.8133 30.08 47.8267 29.2533 47 28.16C46.1733 27.0667 45.76 25.64 45.76 23.88C45.76 21.2667 46.7067 19.2267 48.6 17.76C50.4933 16.2667 52.96 15.52 56 15.52C59.0933 15.52 61.5867 16.2667 63.48 17.76C65.3733 19.2267 66.3867 21.28 66.52 23.92H59.12C59.0667 23.0133 58.7333 22.3067 58.12 21.8C57.5067 21.2667 56.72 21 55.76 21C54.9333 21 54.2667 21.2267 53.76 21.68C53.2533 22.1067 53 22.7333 53 23.56C53 24.4667 53.4267 25.1733 54.28 25.68C55.1333 26.1867 56.4667 26.7333 58.28 27.32C60.0933 27.9333 61.56 28.52 62.68 29.08C63.8267 29.64 64.8133 30.4533 65.64 31.52C66.4667 32.5867 66.88 33.96 66.88 35.64C66.88 37.24 66.4667 38.6933 65.64 40C64.84 41.3067 63.6667 42.3467 62.12 43.12C60.5733 43.8933 58.7467 44.28 56.64 44.28ZM92.1294 32.48C92.1294 33.12 92.0894 33.7867 92.0094 34.48H76.5294C76.636 35.8667 77.076 36.9333 77.8494 37.68C78.6494 38.4 79.6227 38.76 80.7694 38.76C82.476 38.76 83.6627 38.04 84.3294 36.6H91.6094C91.236 38.0667 90.556 39.3867 89.5694 40.56C88.6094 41.7333 87.396 42.6533 85.9294 43.32C84.4627 43.9867 82.8227 44.32 81.0094 44.32C78.8227 44.32 76.876 43.8533 75.1694 42.92C73.4627 41.9867 72.1294 40.6533 71.1694 38.92C70.2094 37.1867 69.7294 35.16 69.7294 32.84C69.7294 30.52 70.196 28.4933 71.1294 26.76C72.0894 25.0267 73.4227 23.6933 75.1294 22.76C76.836 21.8267 78.796 21.36 81.0094 21.36C83.1694 21.36 85.0894 21.8133 86.7694 22.72C88.4494 23.6267 89.756 24.92 90.6894 26.6C91.6494 28.28 92.1294 30.24 92.1294 32.48ZM85.1294 30.68C85.1294 29.5067 84.7294 28.5733 83.9294 27.88C83.1294 27.1867 82.1294 26.84 80.9294 26.84C79.7827 26.84 78.8094 27.1733 78.0094 27.84C77.236 28.5067 76.756 29.4533 76.5694 30.68H85.1294ZM117.778 21.68V44H110.938V40.96C110.244 41.9467 109.298 42.7467 108.098 43.36C106.924 43.9467 105.618 44.24 104.178 44.24C102.471 44.24 100.964 43.8667 99.6578 43.12C98.3511 42.3467 97.3378 41.24 96.6178 39.8C95.8978 38.36 95.5378 36.6667 95.5378 34.72V21.68H102.338V33.8C102.338 35.2933 102.724 36.4533 103.498 37.28C104.271 38.1067 105.311 38.52 106.618 38.52C107.951 38.52 109.004 38.1067 109.778 37.28C110.551 36.4533 110.938 35.2933 110.938 33.8V21.68H117.778ZM149.448 15.92V21.4H138.008V27.32H146.568V32.64H138.008V44H131.168V15.92H149.448ZM175.083 21.68V44H168.243V40.96C167.549 41.9467 166.603 42.7467 165.403 43.36C164.229 43.9467 162.923 44.24 161.483 44.24C159.776 44.24 158.269 43.8667 156.963 43.12C155.656 42.3467 154.643 41.24 153.923 39.8C153.203 38.36 152.843 36.6667 152.843 34.72V21.68H159.643V33.8C159.643 35.2933 160.029 36.4533 160.803 37.28C161.576 38.1067 162.616 38.52 163.923 38.52C165.256 38.52 166.309 38.1067 167.083 37.28C167.856 36.4533 168.243 35.2933 168.243 33.8V21.68H175.083ZM192.436 38.2V44H188.956C186.476 44 184.542 43.4 183.156 42.2C181.769 40.9733 181.076 38.9867 181.076 36.24V27.36H178.356V21.68H181.076V16.24H187.916V21.68H192.396V27.36H187.916V36.32C187.916 36.9867 188.076 37.4667 188.396 37.76C188.716 38.0533 189.249 38.2 189.996 38.2H192.436ZM218.286 21.68V44H211.446V40.96C210.752 41.9467 209.806 42.7467 208.606 43.36C207.432 43.9467 206.126 44.24 204.686 44.24C202.979 44.24 201.472 43.8667 200.166 43.12C198.859 42.3467 197.846 41.24 197.126 39.8C196.406 38.36 196.046 36.6667 196.046 34.72V21.68H202.846V33.8C202.846 35.2933 203.232 36.4533 204.006 37.28C204.779 38.1067 205.819 38.52 207.126 38.52C208.459 38.52 209.512 38.1067 210.286 37.28C211.059 36.4533 211.446 35.2933 211.446 33.8V21.68H218.286ZM230.039 25.4C230.839 24.1733 231.839 23.2133 233.039 22.52C234.239 21.8 235.572 21.44 237.039 21.44V28.68H235.159C233.452 28.68 232.172 29.0533 231.319 29.8C230.465 30.52 230.039 31.8 230.039 33.64V44H223.199V21.68H230.039V25.4ZM250.468 44.32C248.281 44.32 246.308 43.8533 244.548 42.92C242.815 41.9867 241.441 40.6533 240.428 38.92C239.441 37.1867 238.948 35.16 238.948 32.84C238.948 30.5467 239.455 28.5333 240.468 26.8C241.481 25.04 242.868 23.6933 244.628 22.76C246.388 21.8267 248.361 21.36 250.548 21.36C252.735 21.36 254.708 21.8267 256.468 22.76C258.228 23.6933 259.615 25.04 260.628 26.8C261.641 28.5333 262.148 30.5467 262.148 32.84C262.148 35.1333 261.628 37.16 260.588 38.92C259.575 40.6533 258.175 41.9867 256.388 42.92C254.628 43.8533 252.655 44.32 250.468 44.32ZM250.468 38.4C251.775 38.4 252.881 37.92 253.788 36.96C254.721 36 255.188 34.6267 255.188 32.84C255.188 31.0533 254.735 29.68 253.828 28.72C252.948 27.76 251.855 27.28 250.548 27.28C249.215 27.28 248.108 27.76 247.228 28.72C246.348 29.6533 245.908 31.0267 245.908 32.84C245.908 34.6267 246.335 36 247.188 36.96C248.068 37.92 249.161 38.4 250.468 38.4Z" fill="#333333"/>
<path d="M306.053 15.92V44H299.213V27.16L292.933 44H287.413L281.093 27.12V44H274.253V15.92H282.333L290.213 35.36L298.013 15.92H306.053ZM317.812 15.92V44H310.972V15.92H317.812ZM340.249 39.04H329.769L328.089 44H320.929L331.089 15.92H339.009L349.169 44H341.929L340.249 39.04ZM338.489 33.76L335.009 23.48L331.569 33.76H338.489ZM358.981 15.92V32.72C358.981 34.4 359.395 35.6933 360.221 36.6C361.048 37.5067 362.261 37.96 363.861 37.96C365.461 37.96 366.688 37.5067 367.541 36.6C368.395 35.6933 368.821 34.4 368.821 32.72V15.92H375.661V32.68C375.661 35.1867 375.128 37.3067 374.061 39.04C372.995 40.7733 371.555 42.08 369.741 42.96C367.955 43.84 365.955 44.28 363.741 44.28C361.528 44.28 359.541 43.8533 357.781 43C356.048 42.12 354.675 40.8133 353.661 39.08C352.648 37.32 352.141 35.1867 352.141 32.68V15.92H358.981Z" fill="#D99543"/>
<path d="M37.5 26.875C37.5 27.7403 37.2434 28.5862 36.7627 29.3056C36.2819 30.0251 35.5987 30.5858 34.7992 30.917C33.9998 31.2481 33.1201 31.3347 32.2715 31.1659C31.4228 30.9971 30.6433 30.5804 30.0314 29.9686C29.4196 29.3567 29.0029 28.5772 28.8341 27.7285C28.6653 26.8799 28.7519 26.0002 29.083 25.2008C29.4142 24.4013 29.9749 23.7181 30.6944 23.2373C31.4138 22.7566 32.2597 22.5 33.125 22.5C34.2841 22.5041 35.3945 22.9664 36.214 23.786C37.0336 24.6055 37.4959 25.7159 37.5 26.875V26.875ZM11.25 26.875C11.25 26.0097 10.9934 25.1638 10.5127 24.4444C10.032 23.7249 9.34867 23.1642 8.54924 22.833C7.74982 22.5019 6.87015 22.4153 6.02148 22.5841C5.17282 22.7529 4.39326 23.1696 3.78141 23.7814C3.16956 24.3933 2.75288 25.1728 2.58407 26.0215C2.41526 26.8701 2.5019 27.7498 2.83303 28.5492C3.16416 29.3487 3.72492 30.0319 4.44438 30.5127C5.16385 30.9934 6.00971 31.25 6.875 31.25C8.03406 31.2459 9.14446 30.7836 9.96405 29.964C10.7836 29.1445 11.2459 28.0341 11.25 26.875ZM14.375 23.75C15.2403 23.75 16.0862 23.4934 16.8056 23.0127C17.5251 22.532 18.0858 21.8487 18.417 21.0492C18.7481 20.2498 18.8347 19.3701 18.6659 18.5215C18.4971 17.6728 18.0804 16.8933 17.4686 16.2814C16.8567 15.6696 16.0772 15.2529 15.2285 15.0841C14.3799 14.9153 13.5002 15.0019 12.7008 15.333C11.9013 15.6642 11.2181 16.2249 10.7373 16.9444C10.2566 17.6638 10 18.5097 10 19.375C10.0041 20.5341 10.4664 21.6445 11.286 22.464C12.1055 23.2836 13.2159 23.7459 14.375 23.75V23.75ZM25.625 23.75C26.4903 23.75 27.3362 23.4934 28.0556 23.0127C28.7751 22.532 29.3358 21.8487 29.667 21.0492C29.9981 20.2498 30.0847 19.3701 29.9159 18.5215C29.7471 17.6728 29.3305 16.8933 28.7186 16.2814C28.1067 15.6696 27.3272 15.2529 26.4785 15.0841C25.6299 14.9153 24.7502 15.0019 23.9508 15.333C23.1513 15.6642 22.4681 16.2249 21.9873 16.9444C21.5066 17.6638 21.25 18.5097 21.25 19.375C21.2541 20.5341 21.7164 21.6445 22.536 22.464C23.3555 23.2836 24.4659 23.7459 25.625 23.75ZM29.2344 33.25C28.5992 32.9009 28.0391 32.4301 27.586 31.8644C27.1329 31.2987 26.7957 30.6492 26.5938 29.9531C26.1832 28.5213 25.3178 27.2619 24.1282 26.3655C22.9386 25.469 21.4896 24.9841 20 24.9841C18.5104 24.9841 17.0614 25.469 15.8718 26.3655C14.6822 27.2619 13.8168 28.5213 13.4063 29.9531C12.9991 31.3546 12.0559 32.5392 10.7813 33.25C9.557 33.9108 8.58821 34.9611 8.02832 36.2347C7.46844 37.5083 7.34947 38.9322 7.69026 40.281C8.03105 41.6298 8.81211 42.8264 9.90974 43.6811C11.0074 44.5359 12.3588 45 13.75 45C14.5813 44.9992 15.4042 44.8346 16.1719 44.5156C18.617 43.5027 21.3633 43.4971 23.8125 44.5C24.5828 44.83 25.412 45.0001 26.25 45C27.6425 45.0035 28.9964 44.5419 30.0967 43.6884C31.197 42.8348 31.9807 41.6383 32.3235 40.2886C32.6663 38.9389 32.5485 37.5134 31.9889 36.2383C31.4293 34.9631 30.4598 33.9114 29.2344 33.25V33.25Z" fill="#BF5A62"/>
</svg>
