<svg width="211" height="50" viewBox="0 0 211 50" fill="none" xmlns="http://www.w3.org/2000/svg">
<path d="M30 23.2143C30 23.7088 29.8534 24.1921 29.5787 24.6032C29.304 25.0144 28.9135 25.3348 28.4567 25.524C27.9999 25.7132 27.4972 25.7627 27.0123 25.6663C26.5273 25.5698 26.0819 25.3317 25.7322 24.9821C25.3826 24.6324 25.1445 24.187 25.048 23.702C24.9516 23.2171 25.0011 22.7144 25.1903 22.2576C25.3795 21.8008 25.7 21.4103 26.1111 21.1356C26.5222 20.8609 27.0055 20.7143 27.5 20.7143C28.1623 20.7167 28.7968 20.9808 29.2652 21.4491C29.7335 21.9175 29.9976 22.552 30 23.2143ZM15 23.2143C15 22.7199 14.8534 22.2365 14.5787 21.8254C14.304 21.4143 13.9135 21.0938 13.4567 20.9046C12.9999 20.7154 12.4972 20.6659 12.0123 20.7623C11.5273 20.8588 11.0819 21.0969 10.7322 21.4465C10.3826 21.7962 10.1445 22.2416 10.048 22.7266C9.95157 23.2115 10.0011 23.7142 10.1903 24.171C10.3795 24.6278 10.7 25.0183 11.1111 25.293C11.5222 25.5677 12.0055 25.7143 12.5 25.7143C13.1623 25.712 13.7968 25.4478 14.2652 24.9795C14.7335 24.5111 14.9976 23.8766 15 23.2143ZM16.7857 21.4286C17.2802 21.4286 17.7635 21.282 18.1746 21.0073C18.5858 20.7326 18.9062 20.3421 19.0954 19.8853C19.2846 19.4285 19.3341 18.9258 19.2377 18.4409C19.1412 17.9559 18.9031 17.5105 18.5535 17.1608C18.2039 16.8112 17.7584 16.5731 17.2734 16.4766C16.7885 16.3802 16.2858 16.4297 15.829 16.6189C15.3722 16.8081 14.9817 17.1285 14.707 17.5397C14.4323 17.9508 14.2857 18.4341 14.2857 18.9286C14.2881 19.5909 14.5522 20.2254 15.0205 20.6938C15.4889 21.1621 16.1234 21.4262 16.7857 21.4286ZM23.2143 21.4286C23.7087 21.4286 24.1921 21.282 24.6032 21.0073C25.0143 20.7326 25.3348 20.3421 25.524 19.8853C25.7132 19.4285 25.7627 18.9258 25.6662 18.4409C25.5698 17.9559 25.3317 17.5105 24.9821 17.1608C24.6324 16.8112 24.187 16.5731 23.702 16.4766C23.2171 16.3802 22.7144 16.4297 22.2576 16.6189C21.8008 16.8081 21.4103 17.1285 21.1356 17.5397C20.8609 17.9508 20.7143 18.4341 20.7143 18.9286C20.7166 19.5909 20.9808 20.2254 21.4491 20.6938C21.9175 21.1621 22.552 21.4262 23.2143 21.4286ZM25.2768 26.8572C24.9138 26.6577 24.5937 26.3886 24.3348 26.0654C24.0759 25.7421 23.8833 25.371 23.7679 24.9732C23.5333 24.155 23.0387 23.4354 22.359 22.9231C21.6792 22.4109 20.8512 22.1338 20 22.1338C19.1488 22.1338 18.3208 22.4109 17.641 22.9231C16.9613 23.4354 16.4667 24.155 16.2321 24.9732C15.9995 25.7741 15.4605 26.451 14.7321 26.8572C14.0326 27.2347 13.479 27.835 13.159 28.5627C12.8391 29.2904 12.7711 30.1041 12.9659 30.8749C13.1606 31.6456 13.6069 32.3294 14.2341 32.8178C14.8614 33.3063 15.6336 33.5715 16.4286 33.5714C16.9036 33.571 17.3738 33.4769 17.8125 33.2947C19.2097 32.7158 20.779 32.7126 22.1786 33.2857C22.6187 33.4743 23.0926 33.5715 23.5714 33.5714C24.3672 33.5735 25.1408 33.3097 25.7695 32.8219C26.3983 32.3342 26.8461 31.6505 27.042 30.8792C27.2379 30.108 27.1706 29.2934 26.8508 28.5647C26.531 27.8361 25.977 27.2351 25.2768 26.8572Z" fill="#BF5A62"/>
<path d="M40.32 32.14C39.2933 32.14 38.3733 31.9733 37.56 31.64C36.7467 31.3067 36.0933 30.8133 35.6 30.16C35.12 29.5067 34.8667 28.72 34.84 27.8H38.48C38.5333 28.32 38.7133 28.72 39.02 29C39.3267 29.2667 39.7267 29.4 40.22 29.4C40.7267 29.4 41.1267 29.2867 41.42 29.06C41.7133 28.82 41.86 28.4933 41.86 28.08C41.86 27.7333 41.74 27.4467 41.5 27.22C41.2733 26.9933 40.9867 26.8067 40.64 26.66C40.3067 26.5133 39.8267 26.3467 39.2 26.16C38.2933 25.88 37.5533 25.6 36.98 25.32C36.4067 25.04 35.9133 24.6267 35.5 24.08C35.0867 23.5333 34.88 22.82 34.88 21.94C34.88 20.6333 35.3533 19.6133 36.3 18.88C37.2467 18.1333 38.48 17.76 40 17.76C41.5467 17.76 42.7933 18.1333 43.74 18.88C44.6867 19.6133 45.1933 20.64 45.26 21.96H41.56C41.5333 21.5067 41.3667 21.1533 41.06 20.9C40.7533 20.6333 40.36 20.5 39.88 20.5C39.4667 20.5 39.1333 20.6133 38.88 20.84C38.6267 21.0533 38.5 21.3667 38.5 21.78C38.5 22.2333 38.7133 22.5867 39.14 22.84C39.5667 23.0933 40.2333 23.3667 41.14 23.66C42.0467 23.9667 42.78 24.26 43.34 24.54C43.9133 24.82 44.4067 25.2267 44.82 25.76C45.2333 26.2933 45.44 26.98 45.44 27.82C45.44 28.62 45.2333 29.3467 44.82 30C44.42 30.6533 43.8333 31.1733 43.06 31.56C42.2867 31.9467 41.3733 32.14 40.32 32.14ZM58.0647 26.24C58.0647 26.56 58.0447 26.8933 58.0047 27.24H50.2647C50.318 27.9333 50.538 28.4667 50.9247 28.84C51.3247 29.2 51.8114 29.38 52.3847 29.38C53.238 29.38 53.8314 29.02 54.1647 28.3H57.8047C57.618 29.0333 57.278 29.6933 56.7847 30.28C56.3047 30.8667 55.698 31.3267 54.9647 31.66C54.2314 31.9933 53.4114 32.16 52.5047 32.16C51.4114 32.16 50.438 31.9267 49.5847 31.46C48.7314 30.9933 48.0647 30.3267 47.5847 29.46C47.1047 28.5933 46.8647 27.58 46.8647 26.42C46.8647 25.26 47.098 24.2467 47.5647 23.38C48.0447 22.5133 48.7114 21.8467 49.5647 21.38C50.418 20.9133 51.398 20.68 52.5047 20.68C53.5847 20.68 54.5447 20.9067 55.3847 21.36C56.2247 21.8133 56.878 22.46 57.3447 23.3C57.8247 24.14 58.0647 25.12 58.0647 26.24ZM54.5647 25.34C54.5647 24.7533 54.3647 24.2867 53.9647 23.94C53.5647 23.5933 53.0647 23.42 52.4647 23.42C51.8914 23.42 51.4047 23.5867 51.0047 23.92C50.618 24.2533 50.378 24.7267 50.2847 25.34H54.5647ZM70.8889 20.84V32H67.4689V30.48C67.1222 30.9733 66.6489 31.3733 66.0489 31.68C65.4622 31.9733 64.8089 32.12 64.0889 32.12C63.2356 32.12 62.4822 31.9333 61.8289 31.56C61.1756 31.1733 60.6689 30.62 60.3089 29.9C59.9489 29.18 59.7689 28.3333 59.7689 27.36V20.84H63.1689V26.9C63.1689 27.6467 63.3622 28.2267 63.7489 28.64C64.1356 29.0533 64.6556 29.26 65.3089 29.26C65.9756 29.26 66.5022 29.0533 66.8889 28.64C67.2756 28.2267 67.4689 27.6467 67.4689 26.9V20.84H70.8889ZM86.7238 17.96V20.7H81.0038V23.66H85.2838V26.32H81.0038V32H77.5838V17.96H86.7238ZM99.5413 20.84V32H96.1213V30.48C95.7746 30.9733 95.3013 31.3733 94.7013 31.68C94.1146 31.9733 93.4613 32.12 92.7413 32.12C91.8879 32.12 91.1346 31.9333 90.4813 31.56C89.8279 31.1733 89.3213 30.62 88.9613 29.9C88.6013 29.18 88.4213 28.3333 88.4213 27.36V20.84H91.8213V26.9C91.8213 27.6467 92.0146 28.2267 92.4013 28.64C92.7879 29.0533 93.3079 29.26 93.9613 29.26C94.6279 29.26 95.1546 29.0533 95.5413 28.64C95.9279 28.2267 96.1213 27.6467 96.1213 26.9V20.84H99.5413ZM108.218 29.1V32H106.478C105.238 32 104.271 31.7 103.578 31.1C102.884 30.4867 102.538 29.4933 102.538 28.12V23.68H101.178V20.84H102.538V18.12H105.958V20.84H108.198V23.68H105.958V28.16C105.958 28.4933 106.038 28.7333 106.198 28.88C106.358 29.0267 106.624 29.1 106.998 29.1H108.218ZM121.143 20.84V32H117.723V30.48C117.376 30.9733 116.903 31.3733 116.303 31.68C115.716 31.9733 115.063 32.12 114.343 32.12C113.489 32.12 112.736 31.9333 112.083 31.56C111.429 31.1733 110.923 30.62 110.563 29.9C110.203 29.18 110.023 28.3333 110.023 27.36V20.84H113.423V26.9C113.423 27.6467 113.616 28.2267 114.003 28.64C114.389 29.0533 114.909 29.26 115.563 29.26C116.229 29.26 116.756 29.0533 117.143 28.64C117.529 28.2267 117.723 27.6467 117.723 26.9V20.84H121.143ZM127.019 22.7C127.419 22.0867 127.919 21.6067 128.519 21.26C129.119 20.9 129.786 20.72 130.519 20.72V24.34H129.579C128.726 24.34 128.086 24.5267 127.659 24.9C127.233 25.26 127.019 25.9 127.019 26.82V32H123.599V20.84H127.019V22.7ZM137.234 32.16C136.141 32.16 135.154 31.9267 134.274 31.46C133.407 30.9933 132.721 30.3267 132.214 29.46C131.721 28.5933 131.474 27.58 131.474 26.42C131.474 25.2733 131.727 24.2667 132.234 23.4C132.741 22.52 133.434 21.8467 134.314 21.38C135.194 20.9133 136.181 20.68 137.274 20.68C138.367 20.68 139.354 20.9133 140.234 21.38C141.114 21.8467 141.807 22.52 142.314 23.4C142.821 24.2667 143.074 25.2733 143.074 26.42C143.074 27.5667 142.814 28.58 142.294 29.46C141.787 30.3267 141.087 30.9933 140.194 31.46C139.314 31.9267 138.327 32.16 137.234 32.16ZM137.234 29.2C137.887 29.2 138.441 28.96 138.894 28.48C139.361 28 139.594 27.3133 139.594 26.42C139.594 25.5267 139.367 24.84 138.914 24.36C138.474 23.88 137.927 23.64 137.274 23.64C136.607 23.64 136.054 23.88 135.614 24.36C135.174 24.8267 134.954 25.5133 134.954 26.42C134.954 27.3133 135.167 28 135.594 28.48C136.034 28.96 136.581 29.2 137.234 29.2Z" fill="#333333"/>
<path d="M165.027 17.96V32H161.607V23.58L158.467 32H155.707L152.547 23.56V32H149.127V17.96H153.167L157.107 27.68L161.007 17.96H165.027ZM170.906 17.96V32H167.486V17.96H170.906ZM182.125 29.52H176.885L176.045 32H172.465L177.545 17.96H181.505L186.585 32H182.965L182.125 29.52ZM181.245 26.88L179.505 21.74L177.785 26.88H181.245ZM191.491 17.96V26.36C191.491 27.2 191.697 27.8467 192.111 28.3C192.524 28.7533 193.131 28.98 193.931 28.98C194.731 28.98 195.344 28.7533 195.771 28.3C196.197 27.8467 196.411 27.2 196.411 26.36V17.96H199.831V26.34C199.831 27.5933 199.564 28.6533 199.031 29.52C198.497 30.3867 197.777 31.04 196.871 31.48C195.977 31.92 194.977 32.14 193.871 32.14C192.764 32.14 191.771 31.9267 190.891 31.5C190.024 31.06 189.337 30.4067 188.831 29.54C188.324 28.66 188.071 27.5933 188.071 26.34V17.96H191.491Z" fill="#D99543"/>
</svg>
